<mxfile host="app.diagrams.net" modified="2023-11-07T13:58:23.894Z" agent="Mozilla/5.0 (Windows NT 10.0; Win64; x64) AppleWebKit/537.36 (KHTML, like Gecko) Chrome/118.0.0.0 Safari/537.36" etag="PLi-JSuviQ10zks54TYR" version="22.0.8" type="github" pages="3">
  <diagram name="Structure" id="JzsaE7mzixEYm2brD_ER">
    <mxGraphModel dx="794" dy="471" grid="1" gridSize="10" guides="1" tooltips="1" connect="1" arrows="1" fold="1" page="1" pageScale="1" pageWidth="827" pageHeight="1169" math="0" shadow="0">
      <root>
        <mxCell id="0" />
        <mxCell id="1" parent="0" />
        <mxCell id="BS8KBXqFUGfQ81hWkJ6E-9" style="edgeStyle=orthogonalEdgeStyle;rounded=0;orthogonalLoop=1;jettySize=auto;html=1;entryX=0;entryY=0.5;entryDx=0;entryDy=0;" edge="1" parent="1" source="BS8KBXqFUGfQ81hWkJ6E-1" target="BS8KBXqFUGfQ81hWkJ6E-2">
          <mxGeometry relative="1" as="geometry" />
        </mxCell>
        <mxCell id="BS8KBXqFUGfQ81hWkJ6E-1" value="&lt;font color=&quot;#ffffff&quot;&gt;CLIENT&lt;/font&gt;" style="whiteSpace=wrap;html=1;aspect=fixed;fillColor=#1100FF;" vertex="1" parent="1">
          <mxGeometry x="100" y="100" width="90" height="90" as="geometry" />
        </mxCell>
        <mxCell id="BS8KBXqFUGfQ81hWkJ6E-10" style="edgeStyle=orthogonalEdgeStyle;rounded=0;orthogonalLoop=1;jettySize=auto;html=1;" edge="1" parent="1" source="BS8KBXqFUGfQ81hWkJ6E-2">
          <mxGeometry relative="1" as="geometry">
            <mxPoint x="450" y="145" as="targetPoint" />
          </mxGeometry>
        </mxCell>
        <mxCell id="BS8KBXqFUGfQ81hWkJ6E-2" value="&lt;font color=&quot;#ffffff&quot;&gt;SERVER&lt;/font&gt;" style="whiteSpace=wrap;html=1;aspect=fixed;fillColor=#1100FF;" vertex="1" parent="1">
          <mxGeometry x="275" y="100" width="90" height="90" as="geometry" />
        </mxCell>
        <mxCell id="BS8KBXqFUGfQ81hWkJ6E-5" style="edgeStyle=orthogonalEdgeStyle;rounded=0;orthogonalLoop=1;jettySize=auto;html=1;exitX=0;exitY=0.5;exitDx=0;exitDy=0;entryX=0.5;entryY=0;entryDx=0;entryDy=0;" edge="1" parent="1" source="BS8KBXqFUGfQ81hWkJ6E-4" target="BS8KBXqFUGfQ81hWkJ6E-1">
          <mxGeometry relative="1" as="geometry">
            <mxPoint x="150" y="50" as="targetPoint" />
          </mxGeometry>
        </mxCell>
        <mxCell id="BS8KBXqFUGfQ81hWkJ6E-6" value="" style="edgeStyle=orthogonalEdgeStyle;rounded=0;orthogonalLoop=1;jettySize=auto;html=1;" edge="1" parent="1" source="BS8KBXqFUGfQ81hWkJ6E-4" target="BS8KBXqFUGfQ81hWkJ6E-2">
          <mxGeometry relative="1" as="geometry" />
        </mxCell>
        <mxCell id="BS8KBXqFUGfQ81hWkJ6E-7" style="edgeStyle=orthogonalEdgeStyle;rounded=0;orthogonalLoop=1;jettySize=auto;html=1;entryX=0.5;entryY=0;entryDx=0;entryDy=0;" edge="1" parent="1" source="BS8KBXqFUGfQ81hWkJ6E-4">
          <mxGeometry relative="1" as="geometry">
            <mxPoint x="495" y="100" as="targetPoint" />
          </mxGeometry>
        </mxCell>
        <mxCell id="BS8KBXqFUGfQ81hWkJ6E-4" value="STRUCTURE" style="shape=process;whiteSpace=wrap;html=1;backgroundOutline=1;fillColor=#e1d5e7;strokeColor=#9673a6;" vertex="1" parent="1">
          <mxGeometry x="270" y="20" width="100" height="50" as="geometry" />
        </mxCell>
        <mxCell id="BS8KBXqFUGfQ81hWkJ6E-12" style="edgeStyle=orthogonalEdgeStyle;rounded=0;orthogonalLoop=1;jettySize=auto;html=1;entryX=0.5;entryY=1;entryDx=0;entryDy=0;entryPerimeter=0;" edge="1" parent="1" source="BS8KBXqFUGfQ81hWkJ6E-11" target="BS8KBXqFUGfQ81hWkJ6E-13">
          <mxGeometry relative="1" as="geometry">
            <mxPoint x="520" y="265" as="targetPoint" />
          </mxGeometry>
        </mxCell>
        <mxCell id="BS8KBXqFUGfQ81hWkJ6E-11" value="&lt;font color=&quot;#ffffff&quot;&gt;EXTERNAL&lt;br&gt;FOOD API&lt;/font&gt;" style="whiteSpace=wrap;html=1;aspect=fixed;fillColor=#1100FF;" vertex="1" parent="1">
          <mxGeometry x="275" y="220" width="90" height="90" as="geometry" />
        </mxCell>
        <mxCell id="BS8KBXqFUGfQ81hWkJ6E-13" value="&lt;font color=&quot;#ffffff&quot;&gt;POSTGRESQL&lt;/font&gt;" style="shape=cylinder3;whiteSpace=wrap;html=1;boundedLbl=1;backgroundOutline=1;size=15;strokeColor=#FFFFFF;fillColor=#1100FF;" vertex="1" parent="1">
          <mxGeometry x="460" y="105" width="100" height="125" as="geometry" />
        </mxCell>
        <mxCell id="BS8KBXqFUGfQ81hWkJ6E-31" value="&lt;br&gt;&lt;br&gt;&lt;br&gt;&lt;br&gt;" style="text;strokeColor=none;fillColor=none;align=left;verticalAlign=middle;spacingLeft=4;spacingRight=4;overflow=hidden;points=[[0,0.5],[1,0.5]];portConstraint=eastwest;rotatable=0;whiteSpace=wrap;html=1;" vertex="1" parent="1">
          <mxGeometry x="170" y="860" width="140" height="30" as="geometry" />
        </mxCell>
        <mxCell id="rJvIQBrHJhs6t_hp29pw-1" value="SEPARATELY:&amp;nbsp;&lt;br&gt;SERVER : PAGE 2" style="rounded=0;whiteSpace=wrap;html=1;" vertex="1" parent="1">
          <mxGeometry x="150" y="380" width="130" height="60" as="geometry" />
        </mxCell>
        <mxCell id="rJvIQBrHJhs6t_hp29pw-2" value="SEPARATELY:&amp;nbsp;&lt;br&gt;CLIENT: PAGE 3" style="rounded=0;whiteSpace=wrap;html=1;" vertex="1" parent="1">
          <mxGeometry x="360" y="380" width="130" height="60" as="geometry" />
        </mxCell>
      </root>
    </mxGraphModel>
  </diagram>
  <diagram id="zEPNPe0JOWoJ2jwJCS58" name="Server">
    <mxGraphModel dx="794" dy="471" grid="1" gridSize="10" guides="1" tooltips="1" connect="1" arrows="1" fold="1" page="1" pageScale="1" pageWidth="827" pageHeight="1169" math="0" shadow="0">
      <root>
        <mxCell id="0" />
        <mxCell id="1" parent="0" />
        <mxCell id="WIznzLktalA-ZRz0hnve-1" style="edgeStyle=orthogonalEdgeStyle;rounded=0;orthogonalLoop=1;jettySize=auto;html=1;entryX=0;entryY=0.25;entryDx=0;entryDy=0;" edge="1" parent="1" source="WIznzLktalA-ZRz0hnve-3" target="WIznzLktalA-ZRz0hnve-6">
          <mxGeometry relative="1" as="geometry">
            <mxPoint x="116" y="230" as="targetPoint" />
          </mxGeometry>
        </mxCell>
        <mxCell id="WIznzLktalA-ZRz0hnve-2" style="edgeStyle=orthogonalEdgeStyle;rounded=0;orthogonalLoop=1;jettySize=auto;html=1;entryX=0;entryY=0.5;entryDx=0;entryDy=0;" edge="1" parent="1" source="WIznzLktalA-ZRz0hnve-3" target="WIznzLktalA-ZRz0hnve-9">
          <mxGeometry relative="1" as="geometry" />
        </mxCell>
        <mxCell id="WIznzLktalA-ZRz0hnve-3" value="MYESSEN SERVER" style="whiteSpace=wrap;html=1;aspect=fixed;" vertex="1" parent="1">
          <mxGeometry x="76" y="310" width="80" height="80" as="geometry" />
        </mxCell>
        <mxCell id="WIznzLktalA-ZRz0hnve-4" value="SEPARATELY: SERVER" style="rounded=1;whiteSpace=wrap;html=1;" vertex="1" parent="1">
          <mxGeometry x="10" y="110" width="200" height="60" as="geometry" />
        </mxCell>
        <mxCell id="WIznzLktalA-ZRz0hnve-5" style="edgeStyle=orthogonalEdgeStyle;rounded=0;orthogonalLoop=1;jettySize=auto;html=1;entryX=0;entryY=0.5;entryDx=0;entryDy=0;" edge="1" parent="1" source="WIznzLktalA-ZRz0hnve-6" target="WIznzLktalA-ZRz0hnve-11">
          <mxGeometry relative="1" as="geometry" />
        </mxCell>
        <mxCell id="WIznzLktalA-ZRz0hnve-6" value="FOOD MANAGEMENT" style="rounded=1;whiteSpace=wrap;html=1;" vertex="1" parent="1">
          <mxGeometry x="196" y="210" width="150" height="60" as="geometry" />
        </mxCell>
        <mxCell id="WIznzLktalA-ZRz0hnve-7" style="edgeStyle=orthogonalEdgeStyle;rounded=0;orthogonalLoop=1;jettySize=auto;html=1;" edge="1" parent="1" source="WIznzLktalA-ZRz0hnve-9" target="WIznzLktalA-ZRz0hnve-10">
          <mxGeometry relative="1" as="geometry" />
        </mxCell>
        <mxCell id="WIznzLktalA-ZRz0hnve-8" style="edgeStyle=orthogonalEdgeStyle;rounded=0;orthogonalLoop=1;jettySize=auto;html=1;" edge="1" parent="1" source="WIznzLktalA-ZRz0hnve-9">
          <mxGeometry relative="1" as="geometry">
            <mxPoint x="271" y="540" as="targetPoint" />
          </mxGeometry>
        </mxCell>
        <mxCell id="WIznzLktalA-ZRz0hnve-9" value="USER MANAGEMENT" style="rounded=1;whiteSpace=wrap;html=1;" vertex="1" parent="1">
          <mxGeometry x="196" y="430" width="150" height="60" as="geometry" />
        </mxCell>
        <mxCell id="WIznzLktalA-ZRz0hnve-10" value="&lt;div style=&quot;text-align: center;&quot;&gt;&lt;span style=&quot;background-color: initial;&quot;&gt;CRUD&lt;/span&gt;&lt;/div&gt;* create User&lt;br&gt;* get All Users&lt;br&gt;* get One User&lt;br&gt;* update User&lt;br&gt;* delete User" style="whiteSpace=wrap;html=1;aspect=fixed;align=left;spacingLeft=10;" vertex="1" parent="1">
          <mxGeometry x="406" y="400" width="120" height="120" as="geometry" />
        </mxCell>
        <mxCell id="WIznzLktalA-ZRz0hnve-11" value="&lt;div style=&quot;text-align: center;&quot;&gt;&lt;span style=&quot;background-color: initial;&quot;&gt;CRUD&lt;/span&gt;&lt;/div&gt;* create Food&lt;br&gt;* get All Foods&lt;br&gt;* get One Food&lt;br&gt;* update Food&lt;br&gt;* delete Food" style="whiteSpace=wrap;html=1;aspect=fixed;align=left;spacingLeft=10;" vertex="1" parent="1">
          <mxGeometry x="406" y="180" width="120" height="120" as="geometry" />
        </mxCell>
        <mxCell id="WIznzLktalA-ZRz0hnve-12" style="edgeStyle=orthogonalEdgeStyle;rounded=0;orthogonalLoop=1;jettySize=auto;html=1;" edge="1" parent="1" source="WIznzLktalA-ZRz0hnve-13">
          <mxGeometry relative="1" as="geometry">
            <mxPoint x="276" y="700" as="targetPoint" />
          </mxGeometry>
        </mxCell>
        <mxCell id="WIznzLktalA-ZRz0hnve-13" value="&lt;div style=&quot;text-align: center;&quot;&gt;&lt;/div&gt;&lt;div style=&quot;text-align: center;&quot;&gt;&lt;span style=&quot;background-color: initial;&quot;&gt;AUTH&lt;/span&gt;&lt;/div&gt;&lt;div style=&quot;&quot;&gt;&lt;span style=&quot;background-color: initial;&quot;&gt;* login User&lt;/span&gt;&lt;/div&gt;&lt;div style=&quot;&quot;&gt;&lt;span style=&quot;background-color: initial;&quot;&gt;* get currentUser&lt;/span&gt;&lt;/div&gt;* register User" style="whiteSpace=wrap;html=1;aspect=fixed;align=left;spacingLeft=10;" vertex="1" parent="1">
          <mxGeometry x="216" y="550" width="120" height="120" as="geometry" />
        </mxCell>
        <mxCell id="WIznzLktalA-ZRz0hnve-14" value="&lt;div style=&quot;text-align: center;&quot;&gt;&lt;/div&gt;&lt;div style=&quot;&quot;&gt;&lt;div style=&quot;text-align: center;&quot;&gt;&lt;span style=&quot;background-color: initial;&quot;&gt;JWT&lt;/span&gt;&lt;/div&gt;&lt;div style=&quot;&quot;&gt;&lt;span style=&quot;background-color: initial;&quot;&gt;* create Token&lt;br&gt;&lt;/span&gt;&lt;/div&gt;&lt;div style=&quot;&quot;&gt;&lt;span style=&quot;background-color: initial;&quot;&gt;* validate Token&lt;/span&gt;&lt;/div&gt;&lt;/div&gt;" style="whiteSpace=wrap;html=1;aspect=fixed;align=left;spacingLeft=10;" vertex="1" parent="1">
          <mxGeometry x="216" y="710" width="120" height="120" as="geometry" />
        </mxCell>
      </root>
    </mxGraphModel>
  </diagram>
  <diagram id="06vwunxk9zASoHkrgqf2" name="Client">
    <mxGraphModel dx="794" dy="471" grid="1" gridSize="10" guides="1" tooltips="1" connect="1" arrows="1" fold="1" page="1" pageScale="1" pageWidth="827" pageHeight="1169" math="0" shadow="0">
      <root>
        <mxCell id="0" />
        <mxCell id="1" parent="0" />
      </root>
    </mxGraphModel>
  </diagram>
</mxfile>
